<?xml version="1.0" encoding="UTF-8" standalone="no"?>
<svg xmlns:rdf="http://www.w3.org/1999/02/22-rdf-syntax-ns#" xmlns="http://www.w3.org/2000/svg" viewBox="0 0 930.24733 340.03258" height="95.965mm" width="262.54mm" version="1.1" xmlns:cc="http://creativecommons.org/ns#" xmlns:dc="http://purl.org/dc/elements/1.1/">
<defs>
<linearGradient id="s" gradientUnits="userSpaceOnUse" gradientTransform="matrix(0,121.56,-121.56,0,948.5,509.63)">
<stop stop-color="#141111" offset="0"/>
<stop stop-color="#3b3b3b" offset="1"/>
</linearGradient>
<linearGradient id="t" gradientUnits="userSpaceOnUse" gradientTransform="matrix(2.8433,104.25,-104.25,2.8433,939.02,518.32)">
<stop stop-color="#141111" offset="0"/>
<stop stop-color="#3b3b3b" offset="1"/>
</linearGradient>
<linearGradient id="u" gradientUnits="userSpaceOnUse" gradientTransform="matrix(28.706,0,0,28.706,239.29,444.11)">
<stop stop-color="#f5f5f5" offset="0"/>
<stop stop-color="#ddd" offset="1"/>
</linearGradient>
<linearGradient id="m" gradientUnits="userSpaceOnUse" gradientTransform="matrix(7.001,0,0,7.001,241.96,444.11)">
<stop stop-color="#fff" offset="0"/>
<stop stop-color="#ffe6ab" offset="1"/>
</linearGradient>
<linearGradient id="n" gradientUnits="userSpaceOnUse" gradientTransform="matrix(36.114,0,0,36.114,230.89,466.9)">
<stop stop-color="#eeedf5" offset="0"/>
<stop stop-color="#f2ffab" offset="1"/>
</linearGradient>
<linearGradient id="d" gradientUnits="userSpaceOnUse" gradientTransform="matrix(0 274.88 -271 0 694.98 475.36)" y1="6.6353e-17" x1=".033842">
<stop stop-color="#2e80d7" offset="0"/>
<stop stop-color="#205b9a" offset="1"/>
</linearGradient>
<linearGradient id="c" gradientUnits="userSpaceOnUse" gradientTransform="matrix(1,207,-207,1,773,325)">
<stop stop-color="#2e80d7" offset="0"/>
<stop stop-color="#2463a7" offset="1"/>
</linearGradient>
<linearGradient id="b" gradientUnits="userSpaceOnUse" gradientTransform="matrix(-3 209.96 -207 -3.0429 777 524.04)">
<stop stop-color="#2e80d7" offset="0"/>
<stop stop-color="#2463a7" offset="1"/>
</linearGradient>
<linearGradient id="a" gradientUnits="userSpaceOnUse" gradientTransform="matrix(-3 209.96 -207 -3.0429 600 523.03)">
<stop stop-color="#2e80d7" offset="0"/>
<stop stop-color="#2463a7" offset="1"/>
</linearGradient>
</defs>
<g transform="translate(-223.96 -485.35)">
<g stroke="#2b4665" fill="#e6e6e6">
<path opacity="0.449" d="m829 538.36 1 57 45 1-24-44-22-14z"/>
<path opacity="0.449" d="m722 533.36 1 63h93v-61l-94-2z"/>
<path opacity="0.449" d="m587 539.36-38 28-17 28h56l-1-56z"/>
<path opacity="0.449" d="m683 537.36-84 1v57h84v-58z"/>
</g>
<path d="m695 485.35c-42.788 0.044-142 7.1016-142 7.1016-4.9205 2.387-11.428 1.935-12.242 6.9062h4.2383l8 16-29 37-31 38-8 6h-11l-9-9-6.4473-7.3691c-9.2907 3.2463-13.643 6.0029-19.549 9.9785-39.792 0.69479-71.005 3.6597-110 6.0859-33.5 2.8826-102.67 19.296-103.04 29.795-0.326 9.3518 7.134 49.09 7 49.498-0.417 1.2689 12.519 48.503 16.035 55.609 4.31 2.2376 55.23 21.539 60 16.262 23.4-9.0486 19.398-23.258 22-32.492 10.726-14.506 8.127-8.8812 21-14.199 22.499-5.4508 19.644-10.171 39-9.1289 6.71 0.36109 2.6497 5.8985 8.2207 10.123 8.009 6.0726 20.097 9.0398 26.779 20.307l17 33.518c7.822 4.0075 35.477 3.3095 45 2.9961l228-2.0273h131c16.667-4.8737 25.737-2.1299 33-11.158 3.486-9.3052-0.764-34.681 8-43.615 9.023-4.1089 15.711-8.5474 22-8.1133 3.376-2.3552 14.539-2.3356 30-2.0293 25.686 2.5256 27.597 6.5156 42 19.271 6.983 7.7827-0.592 6.0538 20 39.676 41.55 0.26169 97.82-6.0709 128-5.1894 17.28-29.051 21.8-48.519 24-75.809 2.37-29.295-16-59.094-16-59.094-0.16-4.4315-65.94-13.205-102-16.229l-46.227-4.9883 0.2266 0.32227-23 11-9-3-36-40-28-25 2-18 15.059-10.352c-3.35-3.47-8.06-8.37-8.06-8.37-18.491-3.692-32.453-4.8771-48-5.2148-56.509-1.6553-107.61-5.1248-160-5.0723zm27 48.008 94 2v61h-93zm-39 4v58h-84v-57zm146 1 22 14 24 44-45-1zm-242 1 1 56h-56l17-28z" fill="url(#d)"/>
<g transform="matrix(1 0 0 1.0143 .0000035455 194.39)">
<path d="m706 423.5h189l-2 33.5-32 39-15 31h-136l1-92.5-5-11z" stroke="#2b4665" stroke-width="1.9px" fill="url(#c)"/>
</g>
<g stroke="#2b4665">
<path d="m704 524.04 2 99.908h189l-36-76.58-28-20.285-127-3.043zm18 9.3203 94 2v61h-93l-1-63zm107 5 22 14 24 44-45-1-1-57z" stroke-width="2.1049px" fill="url(#b)"/>
<path d="m581 524.04-42 35.5-33 63.395v108.02l193-1.5215v-94.838l-4.0176-11.664-1.9961-98.895h-111.99zm102 13.32v58h-84v-57l84-1zm-96 2 1 56h-56l17-28 38-28z" stroke-width="1.914" fill="url(#a)"/>
<path d="m225.95 623.85 914.3 0.0984" stroke-width="2.1049px" fill="none"/>
</g>
<g transform="matrix(1 0 0 .99998 .0000035455 199.36)">
<path d="m690.08 324.69h15.918" stroke="#2b4665" stroke-width="2.1px" fill="none"/>
</g>
<g transform="matrix(1 0 0 1.0143 -6 191.35)">
<path d="m443 533 432-3.093" stroke="#2b4665" stroke-width="2.09px" fill="none"/>
</g>
<g transform="matrix(1 0 0 1.0143 .0000035455 190.34)">
<path d="m581 329c0.5 1.489 109.98 0 109.98 0" stroke="#2b4665" stroke-width="2.09px" fill="none"/>
</g>
<g transform="matrix(1 0 0 .75 17.111 310.61)">
<path fill="#fafafa" d="m673 453c0-2.208-1.344-4-3-4h-27c-1.656 0-3 1.792-3 4v8c0 2.208 1.344 4 3 4h27c1.656 0 3-1.792 3-4v-8z"/>
</g>
<g transform="matrix(1 0 0 .75 204.11 310.61)">
<path fill="#fafafa" d="m673 453c0-2.208-1.344-4-3-4h-27c-1.656 0-3 1.792-3 4v8c0 2.208 1.344 4 3 4h27c1.656 0 3-1.792 3-4v-8z"/>
</g>
<g transform="matrix(.77273 0 0 .75 349.57 310.61)">
<path fill="#fafafa" d="m673 453c0-2.208-1.74-4-3.882-4h-25.236c-2.142 0-3.882 1.792-3.882 4v8c0 2.208 1.74 4 3.882 4h25.236c2.142 0 3.882-1.792 3.882-4v-8z"/>
</g>
<g transform="translate(-1.3889 199.36)">
<path fill="#e9e9e9" d="m684 455.5c0-0.828-0.672-1.5-1.5-1.5h-15c-0.828 0-1.5 0.672-1.5 1.5v3c0 0.828 0.672 1.5 1.5 1.5h15c0.828 0 1.5-0.672 1.5-1.5v-3z"/>
</g>
<g transform="translate(185.61 199.36)">
<path fill="#e9e9e9" d="m684 455.5c0-0.828-0.672-1.5-1.5-1.5h-15c-0.828 0-1.5 0.672-1.5 1.5v3c0 0.828 0.672 1.5 1.5 1.5h15c0.828 0 1.5-0.672 1.5-1.5v-3z"/>
</g>
<g transform="matrix(.92652 0 0 1 87.772 203.36)">
<path fill="#161212" d="m1130 540.13s13.27 6.508 3.5 16.871c-1.77 1.879-125.84 5-125.84 5l-1.16 18h-28.234s10.819-61.81-17.286-72c-31.287-11.344-64.359-12.759-86 21-21.129 32.959-2.93 53.367-3 52-0.056-1.099-52.159 1-52.159 1l1.159 12h-18.572l-18.349-19h-20.238l-0.524-22s72.918-1.806 88.683-5.5c27.713-6.493 27-45.5 27-45.5l21-7c9.577-1.285 20.736-1.513 33-1l24 3 29.734 50 143.29-6.871z"/>
</g>
<path d="m489 755.36v12l-48-1-2-32 5 21.238 45-0.238z" stroke="#000" stroke-width="2.1px" fill="#141111"/>
<path d="m312 760.36-18-1.751 22-29.249-4 31z" stroke="#000" stroke-width="2.1px" fill="#141111"/>
<g transform="matrix(1.1024 0 0 1.1024 -113.59 127.57)">
<circle cy="569.5" cx="948.5" r="63.5" fill="url(#s)"/>
</g>
<g transform="matrix(1.0551 0 0 1.0551 -624.78 155.47)">
<circle cy="569.5" cx="948.5" r="63.5" fill="url(#t)"/>
</g>
<g transform="translate(-557 201.36)">
<g transform="translate(-2,4)">
<circle cy="552" cx="934" r="45" fill="#fff"/>
</g>
<g transform="matrix(.80952 0 0 .80952 173.48 99.429)">
<circle cy="564" cx="937" r="21" fill="#f3f3f3"/>
</g>
<g transform="matrix(1.3333,0,0,1.3333,-324.67,-186)">
<circle cy="556.5" cx="942.5" r="28.5" fill="#2d2a2a"/>
</g>
<g transform="matrix(2.4414,-2.7411,2.6799,2.3869,-2859.2,1777.9)">
<path fill="#fff" d="m936.88 551.08c-0.92-0.112-1.85-0.112-2.77 0l-1.219 4.767c-1.136 0.445-2.14 1.175-2.915 2.118l-4.911-0.314c-0.39 0.84-0.677 1.725-0.855 2.634l4.157 2.633c0.072 1.218 0.456 2.398 1.114 3.427l-1.817 4.573c0.679 0.631 1.431 1.178 2.241 1.628l3.788-3.141c1.182 0.308 2.422 0.308 3.604 0l3.788 3.141c0.81-0.45 1.562-0.997 2.241-1.628l-1.817-4.573c0.658-1.029 1.042-2.209 1.114-3.427l4.157-2.633c-0.178-0.909-0.465-1.794-0.855-2.634l-4.911 0.314c-0.775-0.943-1.779-1.673-2.915-2.118l-1.219-4.767zm-1.385 7.731c2.034 0 3.685 1.651 3.685 3.685s-1.651 3.685-3.685 3.685-3.685-1.651-3.685-3.685 1.651-3.685 3.685-3.685z"/>
</g>
</g>
<g transform="translate(-2 203.36)">
<circle cy="552" cx="934" r="45" fill="#fff"/>
</g>
<g transform="matrix(.80952 0 0 .80952 173.48 298.79)">
<circle cy="564" cx="937" r="21" fill="#f3f3f3"/>
</g>
<g transform="matrix(1.3333 0 0 1.3333 -324.67 13.362)">
<circle cy="556.5" cx="942.5" r="28.5" fill="#2d2a2a"/>
</g>
<g transform="matrix(2.4414 -2.7411 2.6799 2.3869 -2859.2 1977.3)">
<path fill="#fff" d="m936.88 551.08c-0.92-0.112-1.85-0.112-2.77 0l-1.219 4.767c-1.136 0.445-2.14 1.175-2.915 2.118l-4.911-0.314c-0.39 0.84-0.677 1.725-0.855 2.634l4.157 2.633c0.072 1.218 0.456 2.398 1.114 3.427l-1.817 4.573c0.679 0.631 1.431 1.178 2.241 1.628l3.788-3.141c1.182 0.308 2.422 0.308 3.604 0l3.788 3.141c0.81-0.45 1.562-0.997 2.241-1.628l-1.817-4.573c0.658-1.029 1.042-2.209 1.114-3.427l4.157-2.633c-0.178-0.909-0.465-1.794-0.855-2.634l-4.911 0.314c-0.775-0.943-1.779-1.673-2.915-2.118l-1.219-4.767zm-1.385 7.731c2.034 0 3.685 1.651 3.685 3.685s-1.651 3.685-3.685 3.685-3.685-1.651-3.685-3.685 1.651-3.685 3.685-3.685z"/>
</g>
<g transform="matrix(1.1429 0 0 1 -157.71 200.36)">
<path fill="#19508b" d="m1104 450.25c0-3.449-2.45-6.25-5.47-6.25h-31.06c-3.02 0-5.47 2.801-5.47 6.25v12.5c0 3.449 2.45 6.25 5.47 6.25h31.06c3.02 0 5.47-2.801 5.47-6.25v-12.5z"/>
</g>
<g transform="matrix(.85714 0 0 .5 151.71 428.36)">
<path fill="#f1f1f1" d="m1104 450.25c0-3.449-1.63-6.25-3.65-6.25h-34.7c-2.02 0-3.65 2.801-3.65 6.25v12.5c0 3.449 1.63 6.25 3.65 6.25h34.7c2.02 0 3.65-2.801 3.65-6.25v-12.5z"/>
</g>
<g transform="matrix(.775 0 0 .775 277.08 101.99)">
<circle cy="715" cx="1037" r="10" fill="#f1f1f1"/>
</g>
<g transform="matrix(-1.1528 0 0 -1.4669 1416.6 1274.6)">
<path fill="url(#u)" d="m241.96 436.89h26.036v14.114c0 0.762-29.036 0.339-29.036 0.339s-10.006-10.663 3-14.453z"/>
</g>
<g transform="matrix(-2.4783 0 0 -2.4783 1746.6 1724.6)">
<circle cy="444.5" cx="245.46" r="3.5" fill="url(#m)"/>
</g>
<g fill="#808080" transform="translate(0 198.36)">
<path fill="#808080" d="m274 547-3-22-29.036 1 16.018 21h16.018z"/>
</g>
<path d="m274 744.36-3-18-29.036 1 8.965 17h23.071z" fill="#2e2d2d"/>
<g transform="translate(-4.9321 178.36)">
<path fill="url(#n)" d="m264 445c-1.557-0.321 3 44 3 44l-14 2-17-7c-7.064-22.683-9.114-28.086-5-40.5l12.342-0.701s22.215 2.522 20.658 2.201z"/>
</g>
<path opacity="0.449" d="m479 569-11 7.3574-10 3 7 8 9 9h11l8-6 31-38 29-37-8-16h-6l-3 6" fill="#e6e6e6"/>
<path opacity="0.449" d="m912 503.36-16 11-2 18 28 25 36 40 9 3 23-11-7-10-71-76z" fill="#e6e6e6"/>
<path d="m458 579.36 7 8 9 9h11l8-6 31-38 29-37-8-16h-6" stroke="#2b4665" stroke-width="1.9" fill="none"/>
<path d="m912 503.36-16 11-2 18 28 25 36 40 9 3 23-11" stroke="#2b4665" stroke-width="1.9" fill="none"/>
</g>
</svg>
