<svg width="44" height="44" fill="none" xmlns="http://www.w3.org/2000/svg"><path d="M6 22c0-6.56 0-9.84 1.63-12.16a9 9 0 0 1 2.2-2.21C12.17 6 15.45 6 22 6s9.84 0 12.16 1.63a9 9 0 0 1 2.21 2.2C38 12.17 38 15.45 38 22s0 9.84-1.63 12.16a9 9 0 0 1-2.2 2.21C31.83 38 28.55 38 22 38s-9.84 0-12.16-1.63a9 9 0 0 1-2.21-2.2C6 31.83 6 28.55 6 22z" fill="#F1F0ED"/><path fill-rule="evenodd" clip-rule="evenodd" d="M33 32.75V17.77c0-.3-.14-.57-.37-.75L22.6 9.2a.96.96 0 0 0-1.18 0l-10.04 7.82a.96.96 0 0 0-.37.75v14.89c0 .53.43.95.96.95h5.74V22.22h8.6v10.53c0 .52.43.95.96.95h4.78c.53 0 .96-.43.96-.95z" fill="#FC0"/><path fill-rule="evenodd" clip-rule="evenodd" d="m11 27.96 6.7-5.74V33.7h-5.74a.96.96 0 0 1-.96-.95v-4.79z" fill="url(#a)"/><path fill-rule="evenodd" clip-rule="evenodd" d="m17.7 22.22 3.56 1.99c.46.25.74.73.74 1.25v9.82a.48.48 0 0 1-.71.42l-3.6-2V22.22z" fill="#D89D28"/><g clip-path="url(#b)"><path d="M9.73 5.56c.59-2.4.89-3.6 1.63-4.37a3.96 3.96 0 0 1 1.8-1.08c1.02-.29 2.22.01 4.62.6L35.34 5.1c2.4.6 3.6.9 4.38 1.63.51.49.89 1.11 1.08 1.8.29 1.02-.01 2.23-.61 4.63s-.9 3.6-1.64 4.37c-.49.51-1.11.89-1.8 1.08-1.02.3-2.22 0-4.62-.6l-17.57-4.39c-2.4-.6-3.6-.9-4.37-1.63a3.96 3.96 0 0 1-1.08-1.8c-.29-1.02.01-2.22.62-4.63z" fill="#000"/><path d="m17.26 7.41-2.41-.6-.58 2.3-1.1-.27 1.38-5.56 1.11.27-.58 2.34 2.4.6.59-2.34 1.1.28L17.79 10l-1.1-.28.57-2.3v-.01zm3.33 3.37a2.52 2.52 0 0 1-.77-.34 1.96 1.96 0 0 1-.55-.56c-.14-.24-.23-.5-.26-.77-.04-.29-.01-.6.07-.94.08-.33.21-.62.38-.85.17-.24.37-.42.59-.55.23-.13.48-.21.74-.24.27-.03.56 0 .85.06.29.08.54.19.77.34.46.3.76.78.82 1.33.05.29.03.6-.06.93-.07.31-.2.6-.39.86-.31.45-.8.74-1.35.8-.27.02-.55 0-.84-.07zm.22-.86a.9.9 0 0 0 .76-.14c.22-.16.39-.44.5-.86.1-.42.08-.75-.04-1a.91.91 0 0 0-.61-.47.88.88 0 0 0-.74.14c-.23.16-.4.44-.5.86-.1.42-.1.75.03 1 .14.24.33.4.6.47zm3.57-2.56 1.75.44c.55.13.92.31 1.14.54.2.23.28.5.2.83a.83.83 0 0 1-.39.54c-.2.11-.44.16-.76.16.35.14.6.31.73.5.14.2.17.44.1.74a.98.98 0 0 1-.69.75c-.35.11-.8.1-1.35-.04l-1.74-.43 1-4.03h.01zm.86 1.04-.2.84.57.14c.16.05.32.05.48.02.13-.04.21-.13.25-.28.04-.16.02-.28-.07-.37a.84.84 0 0 0-.4-.2l-.63-.15zm-.39 1.55-.23.92.61.15c.22.05.4.07.55.04.15-.02.25-.13.29-.3.04-.17 0-.3-.1-.4-.1-.11-.28-.2-.55-.27l-.57-.14zm4.58 3.03a1.95 1.95 0 0 1-1.59-1.66 2.8 2.8 0 0 1 .45-1.8c.31-.45.79-.73 1.33-.79.57-.06 1.14.09 1.62.41.46.29.76.78.82 1.32.05.29.03.6-.06.94-.07.31-.2.6-.38.86-.31.45-.8.74-1.35.8-.28.01-.56 0-.85-.08h.01zm.2-.86c.26.08.55.03.77-.13.22-.16.39-.45.5-.87.1-.41.08-.74-.04-.99a.9.9 0 0 0-.6-.47.9.9 0 0 0-.75.13c-.23.16-.4.45-.5.86-.1.42-.09.75.04 1s.32.4.59.47h-.01zm6.14 2.07c-.18.05-.37.08-.56.1-.12.01-.25 0-.4-.01a3.41 3.41 0 0 1-.54-.1c-.78-.19-1.32-.52-1.6-.98a2.15 2.15 0 0 1-.19-1.68c.08-.33.2-.61.37-.84.31-.45.8-.74 1.34-.8.27-.04.57-.02.87.06.31.08.58.2.8.36.22.16.4.36.5.6.12.24.17.51.16.83a2.9 2.9 0 0 1-.26 1.04l-2.73-.68c-.04.33.01.6.16.8.15.2.44.35.85.46.47.13.97.13 1.44 0l-.21.84zm-.9-3.45a.9.9 0 0 0-.64.07c-.2.1-.36.29-.49.55l1.68.42c.07-.29.07-.51-.03-.69-.1-.17-.26-.28-.51-.35h-.01z" fill="#fff"/></g><defs><linearGradient id="a" x1="17.7" y1="28.05" x2="11" y2="28.05" gradientUnits="userSpaceOnUse"><stop stop-color="#F1AF27"/><stop offset="1" stop-color="#FC0"/></linearGradient><clipPath id="b"><path fill="#fff" transform="translate(9)" d="M0 0h31.91v18.73H0z"/></clipPath></defs></svg>