<svg width="44" height="44" fill="none" xmlns="http://www.w3.org/2000/svg"><path d="M6 22c0-6.56 0-9.84 1.63-12.16a9 9 0 0 1 2.2-2.21C12.17 6 15.45 6 22 6s9.84 0 12.16 1.63a9 9 0 0 1 2.21 2.2C38 12.17 38 15.45 38 22s0 9.84-1.63 12.16a9 9 0 0 1-2.2 2.21C31.83 38 28.55 38 22 38s-9.84 0-12.16-1.63a9 9 0 0 1-2.21-2.2C6 31.83 6 28.55 6 22z" fill="url(#paint0_linear)"/><path fill-rule="evenodd" clip-rule="evenodd" d="M6.96 32.95c-.82-1.93-.94-4.54-.96-8.68l8.75-10.62 5.34 2.67L18.76 23 28.78 8.97l6.68 2.67-2 8.69 4.48-3.93c.06 1.56.06 3.4.06 5.6v2.47l-7.22 7.21-5.34-2.67 2-8.02-9.35 14.03-6.68-2.67 2-8.02-6.45 8.62z" fill="url(#paint1_linear)"/><defs><linearGradient id="paint0_linear" x1="22" y1="-1.46" x2="22" y2="38" gradientUnits="userSpaceOnUse"><stop stop-color="#3E3F3A"/><stop offset="1"/></linearGradient><linearGradient id="paint1_linear" x1="22" y1="2.77" x2="22" y2="37.5" gradientUnits="userSpaceOnUse"><stop stop-color="#FFE55B"/><stop offset="1" stop-color="#FC0"/></linearGradient></defs></svg>