<?xml version="1.0" standalone="no"?>
<!DOCTYPE svg PUBLIC "-//W3C//DTD SVG 20010904//EN"
 "http://www.w3.org/TR/2001/REC-SVG-20010904/DTD/svg10.dtd">
<svg version="1.0" xmlns="http://www.w3.org/2000/svg"
 width="14px" height="14px" viewBox="0 0 40.000000 40.000000"
 preserveAspectRatio="xMidYMid meet">

<g transform="translate(0.000000,40.000000) scale(0.100000,-0.100000)"
fill="#000000" stroke="none">
<path d="M110 378 c-99 -53 -138 -173 -88 -268 53 -99 173 -138 268 -88 99 53
138 173 88 268 -53 99 -173 138 -268 88z m141 -78 c23 -13 25 -57 3 -81 -14
-16 -14 -18 4 -23 41 -13 31 -79 -13 -96 -15 -6 -45 -10 -68 -10 l-42 0 3 101
c3 77 1 104 -10 110 -19 13 99 11 123 -1z"/>
<path d="M200 254 c0 -27 4 -43 10 -39 6 3 10 24 10 46 0 21 -4 39 -10 39 -50 -10 -21 -10 -46z"/><path d="M200 150 c0 -46 2 -51 16 -40 18 16 16 81 -3 88 -9 2 -13 -11 -13-48z"/></g></svg>
