<?xml version="1.0" standalone="no"?>
<!DOCTYPE svg PUBLIC "-//W3C//DTD SVG 20010904//EN"
 "http://www.w3.org/TR/2001/REC-SVG-20010904/DTD/svg10.dtd">
<svg version="1.0" xmlns="http://www.w3.org/2000/svg"
 width="14px" height="14px" viewBox="0 0 40.000000 40.000000"
 preserveAspectRatio="xMidYMid meet" >

<g transform="translate(0.000000,40.000000) scale(0.100000,-0.100000)"
fill="rgb(9, 35, 83)" stroke="none">
<path d="M159 374 c-15 -41 6 -90 50 -119 34 -23 147 -53 157 -42 3 3 -12 8
-33 12 -52 9 -100 41 -119 77 -15 29 -15 42 1 81 6 14 2 17 -19 17 -19 0 -29
-7 -37 -26z"/>
<path d="M106 374 c-25 -14 -28 -20 -22 -52 3 -20 14 -48 24 -62 26 -36 112
-79 168 -86 l49 -5 -51 18 c-105 38 -148 88 -141 161 3 23 4 42 3 42 0 -1 -14
-8 -30 -16z"/>
<path d="M237 383 c-14 -13 -6 -64 12 -82 20 -20 81 -41 116 -41 11 1 3 7 -20
15 -48 17 -68 41 -62 77 4 31 -26 51 -46 31z"/>
<path d="M300 350 c0 -12 49 -45 56 -37 7 7 -32 47 -46 47 -5 0 -10 -4 -10
-10z"/>
<path d="M32 300 c-42 -67 -41 -131 3 -206 29 -49 108 -94 166 -94 49 0 135
47 160 86 l19 32 -57 7 c-140 17 -243 87 -263 178 l-6 32 -22 -35z"/>
</g>
</svg>
