<?xml version="1.0" standalone="no"?>
<!DOCTYPE svg PUBLIC "-//W3C//DTD SVG 20010904//EN"
 "http://www.w3.org/TR/2001/REC-SVG-20010904/DTD/svg10.dtd">
<svg version="1.0" xmlns="http://www.w3.org/2000/svg"
 width="14px" height="14px" viewBox="0 0 40.000000 37.000000"
 preserveAspectRatio="xMidYMid meet">

<g transform="translate(0.000000,37.000000) scale(0.100000,-0.100000)"
fill="#000000" stroke="none">
<path d="M60 184 c0 -53 0 -54 30 -54 23 0 30 4 30 20 0 11 4 20 9 20 5 0 13
-9 16 -20 5 -15 15 -20 41 -20 33 0 34 1 21 21 -18 25 -2 69 26 69 14 0 17 -9
17 -45 0 -43 1 -45 30 -45 29 0 30 2 30 45 0 38 3 45 20 45 11 0 20 4 20 10 0
5 -59 9 -145 9 l-145 0 0 -55z m82 21 c0 -5 -5 -11 -11 -13 -6 -2 -11 4 -11
13 0 9 5 15 11 13 6 -2 11 -8 11 -13z"/>
</g>
</svg>
