<svg width="15px" height="15px" fill="none" xmlns="http://www.w3.org/2000/svg"><path fill-rule="evenodd" clip-rule="evenodd" d="M21.79 12l8.53-1.17 1.56 10.87c-.67.18-1.38.27-2.11.27a8.11 8.11 0 0 1-8.24-7.99c0-.68.1-1.34.26-1.98z" fill="#FFE066"/><path fill-rule="evenodd" clip-rule="evenodd" d="M29.77 21.97A8.11 8.11 0 0 0 38 13.98 8.11 8.11 0 0 0 29.77 6a8.2 8.2 0 0 0-7.98 6l8.53-1.17 1.56 10.87c-.67.18-1.38.27-2.11.27z" fill="#027BF3"/><path fill-rule="evenodd" clip-rule="evenodd" d="M13.27 21.97a8.13 8.13 0 0 0 8.26-7.99c0-.66-.08-1.3-.24-1.91L10.15 13.6l1.17 8.15a8.9 8.9 0 0 0 1.95.22z" fill="#FFE066"/><path fill-rule="evenodd" clip-rule="evenodd" d="M21.3 12.07L10.14 13.6l1.17 8.15A8.13 8.13 0 0 1 5 13.98C5 9.58 8.7 6 13.27 6a8.22 8.22 0 0 1 8.02 6.07z" fill="#027BF3"/><path fill-rule="evenodd" clip-rule="evenodd" d="M21.31 31.83l-8.37 1.15-1.56-10.8c.6-.14 1.24-.21 1.89-.21a8.14 8.14 0 0 1 8.26 8.01 7.8 7.8 0 0 1-.22 1.85z" fill="#FFE066"/><path fill-rule="evenodd" clip-rule="evenodd" d="M12.94 32.98l8.37-1.15A8.22 8.22 0 0 1 13.27 38 8.14 8.14 0 0 1 5 29.98c0-3.8 2.73-6.98 6.38-7.8l1.56 10.8z" fill="#027BF3"/><path fill-rule="evenodd" clip-rule="evenodd" d="M31.96 22.26l1.15 7.95-11.37 1.56a7.84 7.84 0 0 1-.2-1.79 8.13 8.13 0 0 1 8.23-8.01c.76 0 1.5.1 2.2.29z" fill="#FFE066"/><path fill-rule="evenodd" clip-rule="evenodd" d="M31.96 22.26l1.15 7.95-11.37 1.56A8.13 8.13 0 0 0 29.77 38 8.13 8.13 0 0 0 38 29.98a8.05 8.05 0 0 0-6.04-7.72z" fill="#027BF3"/></svg>