<svg width="24" height="24" fill="none" xmlns="http://www.w3.org/2000/svg"><path d="M5.408 12.449c.992 2.07 4.326 2.556 7.447 1.086 3.122-1.47 4.849-4.338 3.857-6.407-.17-.354.2-1.657-.226-1.63-1.07.071-1.702-.214-2.487-.463a7.013 7.013 0 0 0-5.048.352 6.954 6.954 0 0 0-3.197 3.07c-.48.925-.883 2.006-1.504 2.62-.314.31.983 1.005 1.158 1.372z" fill="#000"/><path d="M2.14 16.4c1.368 2.856 21.095-6.43 19.727-9.286-.887-1.852-6.617-2.514-12.064.05C4.356 9.728 1.067 14.16 2.14 16.4z" fill="#000"/><path d="M2.192 16.507c.883 1.845 6.464 2.197 11.911-.367 5.448-2.564 8.699-7.074 7.815-8.918-.883-1.845-6.085-1.406-11.532 1.158-5.448 2.565-9.078 6.283-8.194 8.127z" fill="#07F"/><path d="M8.09 15.57c.42.876 2.857.599 5.444-.619 2.587-1.218 4.344-2.915 3.924-3.791-.42-.876-2.857-.599-5.444.619-2.587 1.218-4.344 2.915-3.924 3.791z" fill="#fff"/></svg>