<?xml version="1.0" standalone="no"?>
<!DOCTYPE svg PUBLIC "-//W3C//DTD SVG 20010904//EN"
 "http://www.w3.org/TR/2001/REC-SVG-20010904/DTD/svg10.dtd">
<svg version="1.0" xmlns="http://www.w3.org/2000/svg"
 width="14px" height="14px" viewBox="0 0 40.000000 40.000000"
 preserveAspectRatio="xMidYMid meet">

<g transform="translate(0.000000,40.000000) scale(0.100000,-0.100000)"
fill="#000000" stroke="none">
<path d="M40 300 c0 -93 1 -100 20 -100 17 0 20 7 20 40 0 28 4 40 14 40 8 0
25 -18 37 -40 17 -29 29 -40 46 -40 l24 0 -23 41 c-23 41 -23 41 -3 55 19 14
20 13 26 -17 10 -47 42 -74 88 -74 52 0 83 28 79 69 -3 28 -7 31 -40 34 -28 2
-38 -1 -38 -11 0 -8 9 -17 21 -20 33 -9 17 -32 -22 -32 -28 0 -35 5 -43 28
-15 41 3 81 37 85 16 2 35 -2 43 -9 12 -10 17 -10 27 0 9 10 7 17 -12 32 -32
26 -74 24 -110 -6 l-30 -26 -25 26 c-21 21 -35 25 -81 25 l-55 0 0 -100z m98
61 c25 -16 9 -46 -26 -49 -30 -3 -32 -1 -32 27 0 26 4 31 23 31 12 0 28 -4 35
-9z"/>
<path d="M36 45 c-7 -20 3 -45 19 -45 19 0 27 17 20 40 -7 24 -30 26 -39 5z"/>
</g>
</svg>
