<svg xmlns="http://www.w3.org/2000/svg" width="24" height="24" fill="none"><path d="M12 20a8 8 0 007.983-8.518h-4.498l-1.036 4.942H12.12l1.059-4.942H8.567l.47-2.117h4.589L14.65 4.45A8 8 0 1012 20z" fill="url(#paint0_radial)"/><path d="M12 20a8 8 0 007.983-8.518h-4.498l-1.036 4.942H12.12l1.059-4.942H8.567l.47-2.117h4.589L14.65 4.45A8 8 0 1012 20z" fill="url(#paint1_radial)"/><path d="M16.748 5.561a8.02 8.02 0 012.808 3.804h-3.6l.793-3.804z" fill="url(#paint2_radial)"/><path d="M16.748 5.561a8.02 8.02 0 012.808 3.804h-3.6l.793-3.804z" fill="url(#paint3_radial)"/><defs id="defs42"><radialGradient id="paint0_radial" cx="0" cy="0" r="1" gradientUnits="userSpaceOnUse" gradientTransform="matrix(15.99999 -15.99999 24.2158 24.2158 4 20)"><stop offset=".076" stop-color="#48CCE0" id="stop10"/><stop offset=".308" stop-color="#428BEB" id="stop12"/><stop offset=".648" stop-color="#505ADD" id="stop14"/></radialGradient><radialGradient id="paint1_radial" cx="0" cy="0" r="1" gradientUnits="userSpaceOnUse" gradientTransform="matrix(-15.8049 0 0 -44.8359 20 4)"><stop offset=".029" stop-color="#FCAB14" id="stop17"/><stop offset=".192" stop-color="#FA6641" id="stop19"/><stop offset=".402" stop-color="#BE40C0" id="stop21"/><stop offset="1" stop-color="#505ADD" stop-opacity="0" id="stop23"/></radialGradient><radialGradient id="paint2_radial" cx="0" cy="0" r="1" gradientUnits="userSpaceOnUse" gradientTransform="matrix(15.99999 -15.99999 24.2158 24.2158 4 20)"><stop offset=".076" stop-color="#48CCE0" id="stop26"/><stop offset=".308" stop-color="#428BEB" id="stop28"/><stop offset=".648" stop-color="#505ADD" id="stop30"/></radialGradient><radialGradient id="paint3_radial" cx="0" cy="0" r="1" gradientUnits="userSpaceOnUse" gradientTransform="matrix(-15.8049 0 0 -44.8359 20 4)"><stop offset=".029" stop-color="#FCAB14" id="stop33"/><stop offset=".192" stop-color="#FA6641" id="stop35"/><stop offset=".402" stop-color="#BE40C0" id="stop37"/><stop offset="1" stop-color="#505ADD" stop-opacity="0" id="stop39"/></radialGradient></defs></svg>