<svg width="44" height="44" fill="none" xmlns="http://www.w3.org/2000/svg"><path fill-rule="evenodd" clip-rule="evenodd" d="M5 36.3h32.38L42 15.85H9.28L5 36.29z" fill="#CCC"/><path fill-rule="evenodd" clip-rule="evenodd" d="M5 36.3h32.38V8H5v28.3z" fill="#E2E2E2"/><path fill-rule="evenodd" clip-rule="evenodd" d="M9.63 15.07h23.12v-3.14H9.62v3.14zM21.96 19h10.79v-1.57h-10.8V19zm0 3.15h10.79v-1.57h-10.8v1.57zm0 3.15h10.79v-1.58h-10.8v1.57zm0 3.13h10.79v-1.57h-10.8v1.57zm0 3.15h10.79V30h-10.8v1.57z" fill="#000"/><path fill-rule="evenodd" clip-rule="evenodd" d="M9.63 31.58h10.74l.05-14.15H9.67l-.04 14.15z" fill="#F33"/></svg>