<svg width="44" height="44" fill="none" xmlns="http://www.w3.org/2000/svg"><path d="M27.68 27.63a11.32 11.32 0 1 0 0-22.63 11.32 11.32 0 0 0 0 22.63z" fill="#000"/><path fill-rule="evenodd" clip-rule="evenodd" d="M33.72 16.93c-.34-.85-1-1.51-1.91-1.94.15-.72.2-1.31.22-1.7h-1.57a9 9 0 0 1-.16 1.26 8.2 8.2 0 0 0-3.92.49 28.4 28.4 0 0 1-.3-2.42c4.7-.28 7.48-1.42 7.61-1.47l-.6-1.46a24 24 0 0 1-7.06 1.35c-.01-1.1.06-1.75.07-1.79h-1.58c-.02.3-.07.95-.06 1.84h-.15c-1.4 0-2.71-.1-3.02-.13v1.59c.46.04 1.58.13 2.85.13h.38c.06.9.18 1.92.39 3.05-2.08 1.25-3.74 3.67-2.9 5.64a2.42 2.42 0 0 0 1.93 1.49c.15.02.3.03.46.03.9 0 1.92-.36 2.9-.99a9.6 9.6 0 0 0 1.2 1.52l1.08-1.15a8.49 8.49 0 0 1-1.03-1.33 11.58 11.58 0 0 0 2.83-4.4c.35.2.7.52.88.98.63 1.57-.28 3.38-1.12 4.17l1.06 1.16c1.4-1.31 2.38-3.77 1.52-5.92zm-9.55 4.37a.85.85 0 0 1-.72-.56c-.38-.9.46-2.38 1.83-3.37.34 1.25.78 2.32 1.22 3.18-.83.55-1.69.84-2.33.75zm3.92-2.15c-.1.13-.23.25-.34.37-.4-.8-.77-1.77-1.05-2.92a7.04 7.04 0 0 1 3.17-.51c-.35.96-.9 2.03-1.78 3.06z" fill="#fff"/><path d="M16.32 39a11.32 11.32 0 1 0 0-22.63 11.32 11.32 0 0 0 0 22.63z" fill="#F33"/><path fill-rule="evenodd" clip-rule="evenodd" d="M15.49 20.58l-5.25 12.75h2.15l1.29-3.39h5.3l1.3 3.4h2.14l-5.24-12.76h-1.7zm.84 2.63l1.96 5h-3.91l1.95-5z" fill="#fff"/><path opacity=".53" d="M16.32 39a11.32 11.32 0 1 0 0-22.63 11.32 11.32 0 0 0 0 22.63z" fill="url(#paint0_radial)"/><defs><radialGradient id="paint0_radial" cx="0" cy="0" r="1" gradientUnits="userSpaceOnUse" gradientTransform="translate(16.32 19.83) scale(11.7609)"><stop stop-color="#fff"/><stop offset="1" stop-color="#fff" stop-opacity="0"/></radialGradient></defs></svg>